<?xml version="1.0" encoding="utf-8"?>
<!DOCTYPE svg PUBLIC "-//W3C//DTD SVG 1.1//EN" "http://www.w3.org/Graphics/SVG/1.1/DTD/svg11.dtd">
<svg version="1.1" id="Layer_1" xmlns="http://www.w3.org/2000/svg" xmlns:xlink="http://www.w3.org/1999/xlink" x="0px" y="0px"
	 width="160px" height="160px" viewBox="0 0 160 160" enable-background="new 0 0 160 160" xml:space="preserve">
<path fill="#FFFFFF" d="M80.001,0C35.815,0,0,35.8,0,80s35.8,80,80,80s80-35.8,80-80S124.2,0,80.001,0L80.001,0z M109.434,130.301
	c-3.226,1.885-6.871,2.778-10.517,2.778c-7.135,0-14.271-3.427-18.286-9.544l4.157-2.725c4.579,7,14.899,9.399,22.101,5.197
	c7.154-4.169,9.836-14.209,7.305-19.769c-0.903-1.786-29.756-57.657-38.122-74.229l-35.259,73.269H72.9v5H36.874
	c-0.854,0-1.654-1.758-2.103-2.484c-0.456-0.729-0.504-2.295-0.127-3.066L73.855,24.37c0.411-0.847,1.272-1.548,2.213-1.556
	c0.98-0.006,1.8,0.4,2.2,1.3c0,0,40.3,79.8,40.4,79.985c0.012,0,0,0,0,0.059c3.624,7.742,0.432,20.542-9.268,26.143H109.434z"/>
</svg>