<?xml version="1.0" encoding="UTF-8" standalone="no"?>
<svg
   xmlns:dc="http://purl.org/dc/elements/1.1/"
   xmlns:cc="http://creativecommons.org/ns#"
   xmlns:rdf="http://www.w3.org/1999/02/22-rdf-syntax-ns#"
   xmlns:svg="http://www.w3.org/2000/svg"
   xmlns="http://www.w3.org/2000/svg"
   xmlns:sodipodi="http://sodipodi.sourceforge.net/DTD/sodipodi-0.dtd"
   xmlns:inkscape="http://www.inkscape.org/namespaces/inkscape"
   version="1.1"
   id="Layer_1"
   x="0px"
   y="0px"
   width="160px"
   height="160px"
   viewBox="0 0 160 160"
   enable-background="new 0 0 160 160"
   xml:space="preserve"
   inkscape:version="0.48.4 r9939"
   sodipodi:docname="logo_b.svg"><metadata
     id="metadata9"><rdf:RDF><cc:Work
         rdf:about=""><dc:format>image/svg+xml</dc:format><dc:type
           rdf:resource="http://purl.org/dc/dcmitype/StillImage" /><dc:title></dc:title></cc:Work></rdf:RDF></metadata><defs
     id="defs7" /><sodipodi:namedview
     pagecolor="#ffffff"
     bordercolor="#666666"
     borderopacity="1"
     objecttolerance="10"
     gridtolerance="10"
     guidetolerance="10"
     inkscape:pageopacity="0"
     inkscape:pageshadow="2"
     inkscape:window-width="1600"
     inkscape:window-height="872"
     id="namedview5"
     showgrid="false"
     inkscape:zoom="1.475"
     inkscape:cx="80"
     inkscape:cy="80"
     inkscape:window-x="0"
     inkscape:window-y="0"
     inkscape:window-maximized="1"
     inkscape:current-layer="Layer_1" /><path
     d="M 80.001,0 C 35.815,0 0,35.8 0,80 c 0,44.2 35.8,80 80,80 44.2,0 80,-35.8 80,-80 C 160,35.8 124.2,0 80.001,0 z m 29.433,130.301 C 129.25885,94.897864 30.020627,67.316288 26.374627,67.316288 19.239627,67.316288 84.646,129.652 80.631,123.535 l 4.157,-2.725 c 4.579,7 -10.185746,34.48375 -2.983746,30.28175 C 88.958254,146.92275 116.725,111.798 114.194,106.238 141.08761,75.299458 82.404102,24.852186 74.038102,8.2801864 L 40.813,105.278 l 32.087,0 0,5 -2.805661,-94.915254 C 70.069106,14.509119 35.22,108.52 34.771,107.794 35.670932,88.759915 24.775475,134.65154 25.152475,133.88054 L 73.855,24.37 c 0.411,-0.847 1.272,-1.548 2.213,-1.556 0.98,-0.006 1.8,0.4 2.2,1.3 0,0 40.3,79.8 40.4,79.985 0.012,0 0,0 0,0.059 C 93.139458,14.950847 87.913559,86.055932 78.213559,91.656932 z"
     id="path3"
     style="fill:#ffffff"
     inkscape:connector-curvature="0"
     sodipodi:nodetypes="cssscccsccccccccsccccccccc" /></svg>