<?xml version="1.0" encoding="utf-8"?>
<!DOCTYPE svg PUBLIC "-//W3C//DTD SVG 1.1//EN" "http://www.w3.org/Graphics/SVG/1.1/DTD/svg11.dtd">
<svg version="1.1" id="Layer_1" xmlns="http://www.w3.org/2000/svg" xmlns:xlink="http://www.w3.org/1999/xlink" x="0px" y="0px"
	 width="35px" height="28.13px" viewBox="0 0 35 28.13" enable-background="new 0 0 35 28.13" xml:space="preserve">
<path fill="none" stroke="#38E5D0" stroke-width="5" stroke-linecap="round" stroke-linejoin="round" stroke-miterlimit="10" d="
	M32.458,14.5c0,0-0.666,0-1.491,0H4.118c-0.827,0-1.493,0-1.493,0l0,0c0,0,0.666,0,1.493,0h26.849
	C31.792,14.5,32.458,14.5,32.458,14.5L32.458,14.5z"/>
<path fill="none" stroke="#38E5D0" stroke-width="5" stroke-linecap="round" stroke-linejoin="round" stroke-miterlimit="10" d="
	M32.458,2.5c0,0-0.666,0-1.491,0H4.118c-0.827,0-1.493,0-1.493,0l0,0c0,0,0.666,0,1.493,0h26.849C31.792,2.5,32.458,2.5,32.458,2.5
	L32.458,2.5z"/>
<path fill="none" stroke="#38E5D0" stroke-width="5" stroke-linecap="round" stroke-linejoin="round" stroke-miterlimit="10" d="
	M32.458,25.5c0,0-0.666,0-1.491,0H4.118c-0.827,0-1.493,0-1.493,0l0,0c0,0,0.666,0,1.493,0h26.849
	C31.792,25.5,32.458,25.5,32.458,25.5L32.458,25.5z"/>
</svg>